<?xml version="1.0" encoding="UTF-8" standalone="no"?>
<svg
   xmlns:dc="http://purl.org/dc/elements/1.1/"
   xmlns:cc="http://creativecommons.org/ns#"
   xmlns:rdf="http://www.w3.org/1999/02/22-rdf-syntax-ns#"
   xmlns:svg="http://www.w3.org/2000/svg"
   xmlns="http://www.w3.org/2000/svg"
   id="svg8"
   version="1.1"
   viewBox="0 0 22.577777 22.577776"
   height="63.999996pt"
   width="63.999996pt">
  <defs
     id="defs2" />
  <metadata
     id="metadata5">
    <rdf:RDF>
      <cc:Work
         rdf:about="">
        <dc:format>image/svg+xml</dc:format>
        <dc:type
           rdf:resource="http://purl.org/dc/dcmitype/StillImage" />
        <dc:title></dc:title>
      </cc:Work>
    </rdf:RDF>
  </metadata>
  <g
     transform="translate(5.0663948e-7,-274.42223)"
     id="layer1">
    <path
       id="path10"
       d="M 22.350268,285.71112 A 11.06138,11.06138 0 0 1 11.288888,296.7725 11.06138,11.06138 0 0 1 0.22750759,285.71112 11.06138,11.06138 0 0 1 11.288888,274.64974 a 11.06138,11.06138 0 0 1 11.06138,11.06138 z"
       style="opacity:1;fill:#0b0f13;fill-opacity:1;stroke:#9cd1dd;stroke-width:0.4550162;stroke-linecap:round;stroke-linejoin:round;stroke-miterlimit:4;stroke-dasharray:10.9203886, 10.92038860000000078;stroke-dashoffset:0;stroke-opacity:1;paint-order:normal" />
    <path
       id="path12"
       transform="matrix(0.26458333,0,0,0.26458333,-5.0663948e-7,274.42223)"
       d="m 39.242188,11.779297 c -0.7228,0.03986 -1.105227,0.873329 -0.664063,1.447265 l 2.650391,3.53711 c 0.0082,0.01192 0.01665,0.02364 0.02539,0.03516 l -3.15625,2.728516 c -0.01373,-0.169913 -0.07536,-0.332451 -0.177734,-0.46875 l -2.648438,-3.535156 c -0.180852,-0.248779 -0.476213,-0.387989 -0.783203,-0.369141 -0.724702,0.0425 -1.103533,0.88134 -0.65625,1.453125 l 2.648438,3.537109 c 0.12714,0.169004 0.309661,0.287919 0.515625,0.335938 l -3.38086,2.544922 c -0.40999,0.344693 -0.464827,0.954588 -0.121093,1.365234 l 1.949218,2.400391 c 2.881604,3.549467 7.904742,4.164124 11.669922,1.757812 2.77251,4.040762 7.535959,7.916732 8.953125,12.722656 0.388154,1.384555 0.192714,2.065586 -0.355468,2.65625 -0.548168,0.590703 -1.66777,1.09632 -3.232422,1.425782 -1.564653,0.329574 -3.538531,0.500463 -5.707032,0.61914 -4.337,0.237355 -9.451957,0.269706 -13.966796,1.195313 -4.51484,0.925757 -8.578371,2.816317 -10.320313,6.880859 -0.522135,1.210937 1.294271,1.99414 1.816406,0.783203 1.392069,-3.248164 4.669726,-4.860622 8.902344,-5.728515 4.232618,-0.867855 9.272237,-0.918947 13.679687,-1.160157 2.203726,-0.120567 4.248215,-0.286876 6.001954,-0.65625 1.753734,-0.369259 3.25911,-0.922623 4.273437,-2.015625 1.014327,-1.093001 1.3198,-2.72165 0.8125,-4.53125 -2.172971,-5.318895 -5.410214,-8.55989 -9.351562,-13.414062 3.124539,-3.191547 3.551293,-8.232021 0.669921,-11.779297 l -1.949218,-2.398437 c -0.166353,-0.227832 -0.412891,-0.356519 -0.671875,-0.386719 -0.121248,-0.04974 -0.251896,-0.0724 -0.382813,-0.06641 -0.202862,0.01225 -0.395609,0.09279 -0.546875,0.228516 l -3.11914,2.695313 -2.601563,-3.470703 c -0.179318,-0.246363 -0.471105,-0.385275 -0.77539,-0.369141 z m 6.996093,3.085937 1.544922,1.904297 c 2.422284,2.982085 1.975676,7.322715 -0.976562,9.767578 -0.03288,0.02268 -0.06416,0.04896 -0.09375,0.07617 -2.99884,2.394936 -7.337983,1.93865 -9.761719,-1.046875 l -1.273438,-1.568359 z"
       style="color:#000000;font-style:normal;font-variant:normal;font-weight:normal;font-stretch:normal;font-size:medium;line-height:normal;font-family:sans-serif;font-variant-ligatures:normal;font-variant-position:normal;font-variant-caps:normal;font-variant-numeric:normal;font-variant-alternates:normal;font-feature-settings:normal;text-indent:0;text-align:start;text-decoration:none;text-decoration-line:none;text-decoration-style:solid;text-decoration-color:#000000;letter-spacing:normal;word-spacing:normal;text-transform:none;writing-mode:lr-tb;direction:ltr;text-orientation:mixed;dominant-baseline:auto;baseline-shift:baseline;text-anchor:start;white-space:normal;shape-padding:0;clip-rule:nonzero;display:inline;overflow:visible;visibility:visible;opacity:1;isolation:auto;mix-blend-mode:normal;color-interpolation:sRGB;color-interpolation-filters:linearRGB;solid-color:#000000;solid-opacity:1;vector-effect:none;fill:#9cd1dd;fill-opacity:1;fill-rule:nonzero;stroke:none;stroke-width:1.94170511;stroke-linecap:round;stroke-linejoin:round;stroke-miterlimit:4;stroke-dasharray:none;stroke-dashoffset:0;stroke-opacity:1;paint-order:normal;color-rendering:auto;image-rendering:auto;shape-rendering:auto;text-rendering:auto;enable-background:accumulate" />
    <path
       style="color:#000000;font-style:normal;font-variant:normal;font-weight:normal;font-stretch:normal;font-size:medium;line-height:normal;font-family:sans-serif;font-variant-ligatures:normal;font-variant-position:normal;font-variant-caps:normal;font-variant-numeric:normal;font-variant-alternates:normal;font-feature-settings:normal;text-indent:0;text-align:start;text-decoration:none;text-decoration-line:none;text-decoration-style:solid;text-decoration-color:#000000;letter-spacing:normal;word-spacing:normal;text-transform:none;writing-mode:lr-tb;direction:ltr;text-orientation:mixed;dominant-baseline:auto;baseline-shift:baseline;text-anchor:start;white-space:normal;shape-padding:0;clip-rule:nonzero;display:inline;overflow:visible;visibility:visible;opacity:1;isolation:auto;mix-blend-mode:normal;color-interpolation:sRGB;color-interpolation-filters:linearRGB;solid-color:#000000;solid-opacity:1;vector-effect:none;fill:#9cd1dd;fill-opacity:1;fill-rule:nonzero;stroke:none;stroke-width:0.88194442;stroke-linecap:round;stroke-linejoin:round;stroke-miterlimit:4;stroke-dasharray:none;stroke-dashoffset:0;stroke-opacity:1;paint-order:normal;color-rendering:auto;image-rendering:auto;shape-rendering:auto;text-rendering:auto;enable-background:accumulate"
       d="m 5.835819,290.2068 c -0.4489732,0.41515 0.2080757,1.07219 0.6232176,0.62321 L 16.548857,280.74019 c 0.286564,-0.28048 0.08044,-0.76686 -0.320394,-0.75603 -0.114346,0.003 -0.222927,0.0509 -0.302824,0.13281 z"
       id="path12-0" />
  </g>
</svg>
