<?xml version="1.0" encoding="UTF-8" standalone="no"?>
<svg
   xmlns:dc="http://purl.org/dc/elements/1.1/"
   xmlns:cc="http://creativecommons.org/ns#"
   xmlns:rdf="http://www.w3.org/1999/02/22-rdf-syntax-ns#"
   xmlns:svg="http://www.w3.org/2000/svg"
   xmlns="http://www.w3.org/2000/svg"
   id="svg8"
   version="1.1"
   viewBox="0 0 22.577777 22.577776"
   height="63.999996pt"
   width="63.999996pt">
  <defs
     id="defs2" />
  <metadata
     id="metadata5">
    <rdf:RDF>
      <cc:Work
         rdf:about="">
        <dc:format>image/svg+xml</dc:format>
        <dc:type
           rdf:resource="http://purl.org/dc/dcmitype/StillImage" />
        <dc:title></dc:title>
      </cc:Work>
    </rdf:RDF>
  </metadata>
  <g
     transform="translate(5.0663948e-7,-274.42223)"
     id="layer1">
    <path
       id="path10"
       d="M 22.350268,285.71112 A 11.06138,11.06138 0 0 1 11.288888,296.7725 11.06138,11.06138 0 0 1 0.22750759,285.71112 11.06138,11.06138 0 0 1 11.288888,274.64974 a 11.06138,11.06138 0 0 1 11.06138,11.06138 z"
       style="opacity:1;fill:#0b0f13;fill-opacity:1;stroke:#9cd1dd;stroke-width:0.4550162;stroke-linecap:round;stroke-linejoin:round;stroke-miterlimit:4;stroke-dasharray:10.9203886, 10.92038860000000078;stroke-dashoffset:0;stroke-opacity:1;paint-order:normal" />
    <path
       id="path12"
       transform="matrix(0.26458333,0,0,0.26458333,-5.0663948e-7,274.42223)"
       d="M 43.333984 15.193359 C 37.948464 15.19249 33.547231 19.592916 33.546875 24.978516 L 33.546875 43.917969 C 33.546664 45.17613 33.79579 46.375279 34.232422 47.482422 L 32.484375 49.230469 C 31.695388 47.633402 31.239984 45.837899 31.240234 43.927734 L 31.240234 38.621094 A 1.6668333 1.6668333 0 0 0 29.542969 36.929688 A 1.6668333 1.6668333 0 0 0 27.904297 38.621094 L 27.904297 43.927734 C 27.903924 46.770185 28.701713 49.398526 30.072266 51.642578 L 22.056641 59.658203 A 1.6668333 1.6668333 0 1 0 24.412109 62.013672 L 32.132812 54.292969 C 34.570701 56.797089 37.872237 58.479334 41.552734 58.898438 L 41.552734 73.736328 A 1.6668333 1.6668333 0 1 0 44.882812 73.736328 L 44.882812 58.898438 C 52.500545 58.026576 58.524469 51.773202 58.523438 43.927734 L 58.523438 38.621094 A 1.6668333 1.6668333 0 1 0 55.195312 38.621094 L 55.195312 43.927734 C 55.196178 50.523199 49.904301 55.823449 43.324219 55.886719 A 1.6668333 1.6668333 0 0 0 43.117188 55.886719 C 39.658378 55.858542 36.567804 54.373755 34.402344 52.023438 L 36.027344 50.398438 C 37.823165 52.419429 40.431859 53.705567 43.333984 53.705078 C 48.719479 53.704662 53.120044 49.303493 53.119141 43.917969 L 53.119141 33.306641 L 62.546875 23.878906 A 1.6668333 1.6668333 0 0 0 61.335938 21.021484 A 1.6668333 1.6668333 0 0 0 60.191406 21.523438 L 53.119141 28.595703 L 53.119141 24.978516 C 53.118785 19.593823 48.718598 15.193775 43.333984 15.193359 z M 43.333984 18.525391 C 46.917298 18.525655 49.786875 21.395146 49.787109 24.978516 L 49.787109 31.927734 L 36.941406 44.773438 C 36.904697 44.492766 36.878857 44.209219 36.878906 43.917969 L 36.878906 24.978516 C 36.879143 21.394541 39.750051 18.524786 43.333984 18.525391 z M 49.787109 36.638672 L 49.787109 43.917969 C 49.78771 47.501868 46.917902 50.372745 43.333984 50.373047 C 41.330208 50.373364 39.550038 49.474047 38.369141 48.056641 L 49.787109 36.638672 z "
       style="color:#000000;font-style:normal;font-variant:normal;font-weight:normal;font-stretch:normal;font-size:medium;line-height:normal;font-family:sans-serif;font-variant-ligatures:normal;font-variant-position:normal;font-variant-caps:normal;font-variant-numeric:normal;font-variant-alternates:normal;font-feature-settings:normal;text-indent:0;text-align:start;text-decoration:none;text-decoration-line:none;text-decoration-style:solid;text-decoration-color:#000000;letter-spacing:normal;word-spacing:normal;text-transform:none;writing-mode:lr-tb;direction:ltr;text-orientation:mixed;dominant-baseline:auto;baseline-shift:baseline;text-anchor:start;white-space:normal;shape-padding:0;clip-rule:nonzero;display:inline;overflow:visible;visibility:visible;opacity:1;isolation:auto;mix-blend-mode:normal;color-interpolation:sRGB;color-interpolation-filters:linearRGB;solid-color:#000000;solid-opacity:1;vector-effect:none;fill:#9cd1dd;fill-opacity:1;fill-rule:nonzero;stroke:none;stroke-width:3.33333325;stroke-linecap:round;stroke-linejoin:round;stroke-miterlimit:4;stroke-dasharray:none;stroke-dashoffset:0;stroke-opacity:1;paint-order:normal;color-rendering:auto;image-rendering:auto;shape-rendering:auto;text-rendering:auto;enable-background:accumulate" />
  </g>
</svg>
